<svg xmlns="http://www.w3.org/2000/svg" xmlns:xlink="http://www.w3.org/1999/xlink" width="40" zoomAndPan="magnify" viewBox="0 0 30 48" height="64" preserveAspectRatio="xMidYMid meet" version="1.0"><defs><clipPath id="d16283d4d2"><path d="M 3 1 L 27 1 L 27 47 L 3 47 Z M 3 1 " clip-rule="nonzero"/></clipPath><clipPath id="90eb751987"><path d="M -1.535156 5.128906 L 22.898438 -0.0507812 L 31.738281 41.632812 L 7.300781 46.8125 Z M -1.535156 5.128906 " clip-rule="nonzero"/></clipPath><clipPath id="5a42ab34de"><path d="M -1.535156 5.128906 L 22.898438 -0.0507812 L 31.738281 41.632812 L 7.300781 46.8125 Z M -1.535156 5.128906 " clip-rule="nonzero"/></clipPath></defs><g clip-path="url(#d16283d4d2)"><g clip-path="url(#90eb751987)"><g clip-path="url(#5a42ab34de)"><path fill="#38B6FF" d="M 9.871094 46.441406 C 9.527344 46.511719 9.199219 46.46875 8.878906 46.316406 C 8.710938 46.238281 8.5625 46.136719 8.433594 46.003906 C 8.300781 45.871094 8.199219 45.722656 8.121094 45.550781 C 8.046875 45.382812 8.003906 45.207031 7.992188 45.019531 C 7.980469 44.835938 8.003906 44.65625 8.058594 44.476562 L 8.0625 44.464844 L 13.726562 26.480469 L 5.082031 28.316406 C 4.777344 28.378906 4.480469 28.355469 4.1875 28.238281 C 3.898438 28.125 3.667969 27.9375 3.488281 27.683594 C 3.308594 27.429688 3.21875 27.144531 3.210938 26.832031 C 3.203125 26.523438 3.28125 26.234375 3.449219 25.972656 L 17.566406 1.761719 L 17.585938 1.726562 C 17.789062 1.414062 18.070312 1.203125 18.425781 1.09375 C 18.78125 0.984375 19.132812 1 19.476562 1.140625 C 19.820312 1.28125 20.082031 1.519531 20.257812 1.847656 C 20.429688 2.175781 20.480469 2.523438 20.40625 2.890625 L 20.398438 2.914062 L 16.414062 19.414062 L 24.019531 17.800781 C 24.449219 17.710938 24.867188 17.746094 25.277344 17.90625 C 25.683594 18.070312 26.011719 18.328125 26.261719 18.6875 C 26.515625 19.046875 26.644531 19.445312 26.65625 19.882812 C 26.667969 20.320312 26.554688 20.726562 26.324219 21.097656 L 10.839844 45.757812 L 10.824219 45.785156 C 10.59375 46.132812 10.277344 46.351562 9.871094 46.441406 Z M 9.503906 44.894531 Z M 4.851562 26.726562 L 13.472656 24.902344 C 13.605469 24.871094 13.738281 24.863281 13.871094 24.867188 C 14.007812 24.875 14.136719 24.898438 14.265625 24.941406 C 14.394531 24.980469 14.515625 25.035156 14.628906 25.109375 C 14.742188 25.179688 14.84375 25.265625 14.933594 25.363281 C 15.023438 25.464844 15.101562 25.570312 15.164062 25.691406 C 15.226562 25.808594 15.273438 25.933594 15.304688 26.0625 C 15.335938 26.195312 15.347656 26.328125 15.347656 26.460938 C 15.34375 26.59375 15.320312 26.726562 15.285156 26.855469 L 15.277344 26.871094 L 9.699219 44.578125 L 24.96875 20.25 C 25.105469 20.03125 25.101562 19.816406 24.953125 19.601562 C 24.804688 19.390625 24.605469 19.3125 24.351562 19.363281 L 16.671875 20.992188 C 16.542969 21.019531 16.417969 21.03125 16.289062 21.027344 C 16.160156 21.019531 16.03125 21 15.910156 20.964844 C 15.785156 20.925781 15.667969 20.875 15.558594 20.808594 C 15.445312 20.746094 15.347656 20.667969 15.253906 20.574219 C 15.164062 20.484375 15.085938 20.382812 15.019531 20.273438 C 14.953125 20.164062 14.898438 20.046875 14.863281 19.921875 C 14.824219 19.796875 14.804688 19.671875 14.800781 19.542969 C 14.792969 19.414062 14.804688 19.289062 14.828125 19.160156 L 14.835938 19.136719 L 18.765625 2.875 Z M 19.625 2.726562 Z M 19.625 2.726562 " fill-opacity="1" fill-rule="nonzero"/></g></g></g></svg>